/* XPM */
static char * play_pause_xpm[] = {
"40 19 2 1",
" 	c None",
".	c #000000",
"                                        ",
"                                        ",
"  ...                   ..   ...   ...  ",
"  .....                 ..   ...   ...  ",
"  .......              ...   ...   ...  ",
"  .........            ..    ...   ...  ",
"  ...........         ...    ...   ...  ",
"  .............       ..     ...   ...  ",
"  ...............    ...     ...   ...  ",
"  ................   ..      ...   ...  ",
"  ...............   ...      ...   ...  ",
"  .............     ..       ...   ...  ",
"  ...........      ...       ...   ...  ",
"  .........        ..        ...   ...  ",
"  .......         ...        ...   ...  ",
"  .....           ..         ...   ...  ",
"  ...             ..         ...   ...  ",
"                                        ",
"                                        "};
