/* XPM */
static char * previous_xpm[] = {
"40 19 2 1",
" 	c None",
".	c #000000",
"                                        ",
"                                        ",
"  ..              ...              ...  ",
"  ..            .....            .....  ",
"  ..          .......          .......  ",
"  ..        .........        .........  ",
"  ..      ...........      ...........  ",
"  ..    .............    .............  ",
"  ..  ...............  ...............  ",
"  .. ................ ................  ",
"  ..  ...............  ...............  ",
"  ..    .............    .............  ",
"  ..      ...........      ...........  ",
"  ..        .........        .........  ",
"  ..          .......          .......  ",
"  ..            .....            .....  ",
"  ..              ...              ...  ",
"                                        ",
"                                        "};
